<svg width="20" height="20" viewBox="0 0 20 20" fill="none" xmlns="http://www.w3.org/2000/svg">
<path d="M3.70899 11.5903L9.50284 17.033C9.64799 17.1694 9.72056 17.2376 9.79948 17.2721C9.92736 17.3282 10.0728 17.3282 10.2007 17.2721C10.2796 17.2376 10.3522 17.1694 10.4974 17.033L16.2912 11.5903C17.9214 10.059 18.1193 7.539 16.7483 5.77189L16.4905 5.43961C14.8503 3.32565 11.5581 3.68018 10.4057 6.09487C10.2429 6.43596 9.75734 6.43596 9.59455 6.09487C8.44208 3.68017 5.14987 3.32565 3.50972 5.43962L3.25192 5.77189C1.88089 7.539 2.07885 10.059 3.70899 11.5903Z" stroke="#413F3D"/>
</svg>
